name rise34.3697peak60.0498fall86.3158.mot
datacolumns 19
datarows 11
range 18.01159400000000 18.02826900000000
endheader
time	ground_force1_vx	ground_force1_vy	ground_force1_vz	ground_force1_px	ground_force1_py	ground_force1_pz	ground_force2_vx	ground_force2_vy	ground_force2_vz	ground_force2_px	ground_force2_py	ground_force2_pz	ground_torque1_x	ground_torque1_y	ground_torque1_z	ground_torque2_x	ground_torque2_y	ground_torque2_z	
18.01159400000000	-7.74439500000000	42.31012700000000	-7.38392400000000	0.38164500000000	0.00000000000000	0.11540600000000	-46.38111100000000	794.05028200000004	-58.40080400000000	0.19394500000000	0.00000000000000	-0.07565300000000	0.00000000000000	-5.60899100000000	0.00000000000000	0.00000000000000	-28.17693800000000	0.00000000000000	
18.01326500000000	-8.45586400000000	49.46821300000000	-8.25906400000000	0.38630500000000	0.00000000000000	0.11620500000000	-47.02769200000000	791.59324200000003	-58.07547800000000	0.19305800000000	0.00000000000000	-0.07554800000000	0.00000000000000	-6.34812200000000	0.00000000000000	0.00000000000000	-28.05229100000000	0.00000000000000	
18.01492800000000	-9.01053400000000	56.68538600000000	-9.03714100000000	0.39049600000000	0.00000000000000	0.11694400000000	-47.69256100000000	789.01738699999999	-57.73053400000000	0.19216500000000	0.00000000000000	-0.07544100000000	0.00000000000000	-7.02913100000000	0.00000000000000	0.00000000000000	-27.92577700000000	0.00000000000000	
18.01659800000000	-9.38717400000000	63.86662600000000	-9.69802000000000	0.39429200000000	0.00000000000000	0.11763300000000	-48.37537000000000	786.32023300000003	-57.36587500000000	0.19126600000000	0.00000000000000	-0.07533100000000	0.00000000000000	-7.63595400000000	0.00000000000000	0.00000000000000	-27.79741200000000	0.00000000000000	
18.01826900000000	-9.57343700000000	70.94105600000000	-10.22845000000000	0.39775100000000	0.00000000000000	0.11827700000000	-49.07566400000000	783.49920699999996	-56.98141500000000	0.19036200000000	0.00000000000000	-0.07521900000000	0.00000000000000	-8.15757800000000	0.00000000000000	0.00000000000000	-27.66719700000000	0.00000000000000	
18.01993600000000	-9.56568600000000	77.86402400000000	-10.62211800000000	0.40092200000000	0.00000000000000	0.11888200000000	-49.79287700000000	780.55165599999998	-56.57707800000000	0.18945200000000	0.00000000000000	-0.07510400000000	0.00000000000000	-8.58817400000000	0.00000000000000	0.00000000000000	-27.53512400000000	0.00000000000000	
18.02159800000000	-9.36815000000000	84.61667600000000	-10.87913600000000	0.40384600000000	0.00000000000000	0.11945300000000	-50.52633300000000	777.47484899999995	-56.15280600000000	0.18853800000000	0.00000000000000	-0.07498600000000	0.00000000000000	-8.92678900000000	0.00000000000000	0.00000000000000	-27.40116700000000	0.00000000000000	
18.02326400000000	-8.99157800000000	91.20348400000000	-11.00508600000000	0.40655400000000	0.00000000000000	0.11999300000000	-51.27523900000000	774.26599299999998	-55.70855400000000	0.18761900000000	0.00000000000000	-0.07486500000000	0.00000000000000	-9.17667900000000	0.00000000000000	0.00000000000000	-27.26528800000000	0.00000000000000	
18.02493200000000	-8.45159100000000	97.64827099999999	-11.00978200000000	0.40907600000000	0.00000000000000	0.12050500000000	-52.03869100000000	770.92223200000001	-55.24429300000000	0.18669600000000	0.00000000000000	-0.07474100000000	0.00000000000000	-9.34442500000000	0.00000000000000	0.00000000000000	-27.12743500000000	0.00000000000000	
18.02659600000000	-7.76691900000000	103.98933599999999	-10.90590400000000	0.41143600000000	0.00000000000000	0.12099200000000	-52.81567100000000	767.44066099999998	-54.76001300000000	0.18577000000000	0.00000000000000	-0.07461500000000	0.00000000000000	-9.43891200000000	0.00000000000000	0.00000000000000	-26.98754400000000	0.00000000000000	
18.02826900000000	-6.95769800000000	110.27424000000001	-10.70764000000000	0.41365300000000	0.00000000000000	0.12145700000000	-53.60504400000000	763.81833800000004	-54.25572400000000	0.18484100000000	0.00000000000000	-0.07448600000000	0.00000000000000	-9.47030700000000	0.00000000000000	0.00000000000000	-26.84553600000000	0.00000000000000	
